<svg xmlns="http://www.w3.org/2000/svg" version="1.1" xmlns:xlink="http://www.w3.org/1999/xlink" xmlns:svgjs="http://svgjs.dev/svgjs" width="1440" height="1080" preserveAspectRatio="none" viewBox="0 0 1440 1080"><g mask="url(&quot;#SvgjsMask1186&quot;)" fill="none"><rect width="1440" height="1080" x="0" y="0" fill="url(&quot;#SvgjsLinearGradient1187&quot;)"></rect><path d="M1440 0L897.89 0L1440 367.35z" fill="rgba(255, 255, 255, .1)"></path><path d="M897.89 0L1440 367.35L1440 691.99L889.99 0z" fill="rgba(255, 255, 255, .075)"></path><path d="M889.99 0L1440 691.99L1440 912.11L549.6600000000001 0z" fill="rgba(255, 255, 255, .05)"></path><path d="M549.6600000000001 0L1440 912.11L1440 1026.17L282.8900000000001 0z" fill="rgba(255, 255, 255, .025)"></path><path d="M0 1080L630.35 1080L0 799.1700000000001z" fill="rgba(0, 0, 0, .1)"></path><path d="M0 799.1700000000001L630.35 1080L749.74 1080L0 528.71z" fill="rgba(0, 0, 0, .075)"></path><path d="M0 528.71L749.74 1080L989.48 1080L0 466.94000000000005z" fill="rgba(0, 0, 0, .05)"></path><path d="M0 466.94000000000005L989.48 1080L1197.8600000000001 1080L0 397.22z" fill="rgba(0, 0, 0, .025)"></path></g><defs><mask id="SvgjsMask1186"><rect width="1440" height="1080" fill="#ffffff"></rect></mask><linearGradient x1="6.25%" y1="-8.33%" x2="93.75%" y2="108.33%" gradientUnits="userSpaceOnUse" id="SvgjsLinearGradient1187"><stop stop-color="rgba(246, 164, 81, 1)" offset="0"></stop><stop stop-color="rgba(246, 81, 81, 1)" offset="0.58"></stop></linearGradient></defs></svg>